<?xml version="1.0" encoding="utf-8"?>
<!-- Generator: Adobe Illustrator 24.1.0, SVG Export Plug-In . SVG Version: 6.00 Build 0)  -->
<svg version="1.1" id="Capa_1" xmlns="http://www.w3.org/2000/svg" xmlns:xlink="http://www.w3.org/1999/xlink" x="0px" y="0px"
	 viewBox="0 0 496 496" style="enable-background:new 0 0 496 496;" xml:space="preserve">
<style type="text/css">
	.st0{fill:#FFFFFF;}
</style>
<g>
	<g id="Layer_8_42_">
		<path class="st0" d="M496,151.6c0,25-20.3,45.3-45.3,45.3c-2.8,0-5.5-0.3-8.1-0.8L405.4,329v47.7H90.6v-49.6l-36.9-131
			c-2.7,0.5-5.6,0.8-8.4,0.8C20.3,197,0,176.7,0,151.6c0-25,20.3-45.3,45.3-45.3c25,0,45.3,20.3,45.3,45.3c0,6.2-1.2,12-3.5,17.4
			c45.3,15.3,115.2,27.7,146.6-24.9c-18-6-31.1-22.9-31.1-43c0-25,20.3-45.3,45.3-45.3s45.3,20.3,45.3,45.3c0,20-13,37-31,43
			c18.4,33.9,59.3,69.3,148.5,28.9c-3.4-6.4-5.4-13.6-5.4-21.4c0-25,20.3-45.3,45.3-45.3S496,126.6,496,151.6z M90.6,440.2h314.8
			v-42.9H90.6V440.2z"/>
	</g>
</g>
</svg>
