<?xml version="1.0" encoding="utf-8"?>
<!-- Generator: Adobe Illustrator 24.1.0, SVG Export Plug-In . SVG Version: 6.00 Build 0)  -->
<svg version="1.1" id="Layer_1" xmlns="http://www.w3.org/2000/svg" xmlns:xlink="http://www.w3.org/1999/xlink" x="0px" y="0px"
	 viewBox="0 0 960 460" style="enable-background:new 0 0 960 460;" xml:space="preserve">
<style type="text/css">
	.st0{fill:#1D1D32;}
	.st1{opacity:0.1;}
	.st2{fill:#FFFFFF;}
	.st3{fill:url(#SVGID_1_);}
	.st4{opacity:0.49;}
	.st5{fill:url(#SVGID_2_);}
	.st6{opacity:0.5;}
	.st7{fill:#25294A;}
</style>
<path class="st0" d="M278,448.2c-1.5,0-2.9-0.1-4.4-0.3c-11-1.6-20.3-9.3-23.9-19.8l-47.3-135.4C184,304.4,162.9,313.4,142,318
	c-13.8,3-26.9,4.6-39,4.6c-23.9,0-43.9-5.9-59.3-17.6c-19.2-14.5-29.5-36.9-28-61.5c0-0.2,0-0.4,0-0.6c0.1-0.8,0.1-1.6,0.2-2.4
	c0,0,0.1-0.8,0.1-0.9c0.1-0.7,0.2-1.4,0.3-2.1c0-0.3,0.1-0.7,0.1-1c0.1-0.7,0.2-1.3,0.3-2c0.1-0.3,0.1-0.7,0.2-1.1
	c0.1-0.6,0.2-1.3,0.4-1.9c0,0,0.2-0.7,0.2-1c0.2-0.7,0.3-1.4,0.5-2c0.1-0.3,0.1-0.6,0.2-0.9c0.3-1,0.5-2,0.8-2.9
	c7.6-25.4,26.9-48.9,53.2-64.4c4.7-2.8,10.3-5.7,16.7-8.4c-9.9-10.4-15.6-23-16.3-36c0-0.1,0-0.1,0-0.2c0-1-0.1-2-0.1-3
	c0-1.1,0.1-2.2,0.1-3.3c0.8-10.1,5-25.1,20.6-39.5c14.5-13.3,36-23.7,60.5-29.3c9.9-2.2,19.4-3.4,28.1-3.4l0.3,0
	c1.5,0,2.9,0,4.3,0.1c17.1,0.8,30.8,6.4,40.6,16.5c1,1.1,2,2.2,3,3.4c0.3,0.4,0.6,0.8,0.9,1.2c0.6,0.8,1.2,1.7,1.8,2.6
	c0.3,0.4,0.5,0.8,0.8,1.3c0.5,0.9,1,1.8,1.5,2.8c0.2,0.4,0.4,0.9,0.6,1.3c0.6,1.3,1.2,2.8,1.7,4.1c0,0.1,0.1,0.2,0.1,0.3
	c0.4,1.3,0.8,2.6,1.2,4c0,0,0,0.1,0,0.1c0.1,0.4,0.2,0.7,0.2,1.1c0.2,1.1,0.4,2.1,0.6,3.2c0.1,0.4,0.1,0.8,0.2,1.1
	c0.1,1.1,0.2,2.2,0.3,3.3c0,0.3,0,0.6,0,0.9c0.3,8.2-1.4,16.4-5.1,24.3c-3.1,6.7-7.3,13.2-13.1,20c7,4.2,13.8,9.1,19.8,15.1
	c9-15.6,21-29.2,34.8-39.2c9.6-6.9,19.3-11.7,29-14.1c4.7-1.2,9.5-1.8,14.1-1.8c0.4,0,0.8,0,1.1,0c12.2,0.2,23.6,4.7,31.9,12.7
	c2.2,2.1,4.1,4.4,5.8,6.9c9.8-9.8,20.1-17,30.7-21.3c7.5-3.1,15-4.7,22.2-4.7c0.4,0,0.7,0,1.1,0c3.5,0.1,6.9,0.5,10.2,1.3
	c6.6,1.5,12.7,4.5,18,8.6c6.2-4.5,13.7-7.2,21.6-7.6c0.5,0,1.1,0,1.5,0c17.8,0,32.8,11.7,37.5,27.6c1.5-0.1,3-0.1,4.5-0.1
	c0.1,0,0.7,0,0.8,0c13.6,0,25.7,6.9,32.6,17.3c7.4-9.6,15.9-18,25.2-24.8c6.1-4.4,12.2-7.9,18.4-10.5c5.9-11.7,17.9-20.1,32.1-21.1
	c5.6-0.4,16.2-1.1,28.8-1.9c1.1-2.9,2.1-5.9,3.3-9c5.3-14.8,20.2-25.3,36.3-25.4c0.1,0,0.4,0,0.4,0c19.1,0,35.1,13.5,38.3,31.3
	l0.2,0c5.1,0,9.3,0.1,12.7,0.4c0.3,0,0.6,0.1,0.9,0.1c4.9-14.7,17.2-26.2,33.2-29.7L891,12c3.2-0.7,6.4-1,9.7-1
	c12.4,0,24.3,5.2,32.8,14.2c8.5,9,12.9,21.3,12.1,33.7L935.8,219c-0.5,8-3.1,15.5-7.2,21.8c3.6,6.4,4.8,14,3.1,21.6l-10.2,43.5
	c0,0.2-0.1,0.4-0.2,0.6c4.1,5,7.6,10.7,10.4,17.1c3.5,8.1,5.5,17.2,5.9,27.3c0.5,13.4-1.7,25.8-6.5,36.8c-4.8,11-11.7,20.4-20.6,28
	c-8.4,7.2-18.3,12.8-29.6,16.6c-10.3,3.5-21.3,5.5-32.9,6c-0.1,0-0.2,0-0.4,0c-1,0-2.1,0-3.1,0c-4.6,0-9.4-0.3-14.2-1
	c-5.6-0.7-11.1-1.9-16.6-3.3c-5.3-1.4-10.4-3.2-15.4-5.2c-4.7-1.9-9.3-3.9-13.5-6.1c-3-1.5-5.6-3.4-7.8-5.7
	c-6.3,4.7-13.1,9-20.3,12.7c-1.2,0.6-2.5,1.2-3.9,1.6c-6,2.1-12.5,3.5-19.4,4.3c-5.1,0.6-11.2,0.9-18.5,0.9c0,0,0,0,0,0
	c-1.5,0-3,0-4.6,0c-9.3-0.1-20.2-1.1-33.3-2.9c-4.6-0.6-8.8-2.3-12.5-4.7l-0.1,0.1c-5.9,7.3-14.6,11.1-23.3,11.1
	c-6.6,0-13.2-2.2-18.8-6.6l-3.5-2.8c-0.2,0.1-0.3,0.3-0.5,0.4c-5.5,4.8-12.6,7.5-19.8,7.5c-1.1,0-2.2-0.1-3.4-0.2l-41.8-4.7
	c-9.7-1.1-17.9-6.7-22.6-14.7c-3.5,2.7-7.3,5.2-11.3,7.5c-8.2,4.7-17.1,8.3-26.5,10.7c-8.8,2.3-17.9,3.4-27.1,3.4
	c-0.6,0-1.3,0-1.9,0c-10.7-0.2-21.2-2.2-31.1-6.1c-10.3-4-19.7-10-28.1-18c-3.1-3-6-6.2-8.7-9.8l-2.3,7.3
	c-3.2,10.3-11.7,18.1-22.3,20.4c-2.1,0.5-4.3,0.7-6.4,0.7c-8.4,0-16.6-3.6-22.3-10l-18.3-20.4l-22.6,31
	C296.5,443.7,287.5,448.2,278,448.2z M685.1,212.5L685.1,212.5z"/>
<g class="st1">
	<path class="st2" d="M932.4,256.6c0.2-5.2-1-10.2-3.3-14.7c-0.2,0.3-0.4,0.6-0.6,0.9C930.9,247,932.2,251.7,932.4,256.6z"/>
	<path class="st2" d="M221.9,130.7c7,4.2,13.8,9.1,19.8,15.1c9-15.6,21-29.2,34.8-39.2c9.6-6.9,19.3-11.7,29-14.1
		c4.7-1.2,9.5-1.8,14.1-1.8c0.4,0,0.8,0,1.1,0c12.2,0.2,23.6,4.7,31.9,12.7c2.2,2.1,4.1,4.4,5.8,6.9c9.8-9.8,20.1-17,30.7-21.3
		c7.5-3.1,15-4.7,22.2-4.7c0.4,0,0.7,0,1.1,0c3.5,0.1,6.9,0.5,10.2,1.3c6.6,1.5,12.7,4.5,18,8.6c6.2-4.5,13.7-7.2,21.6-7.6
		c0.5,0,1.1,0,1.5,0c17.8,0,32.8,11.7,37.5,27.6c1.5-0.1,3-0.1,4.5-0.1c0.1,0,0.7,0,0.8,0c13.6,0,25.7,6.9,32.6,17.3
		c7.4-9.6,15.9-18,25.2-24.8c6.1-4.4,12.2-7.9,18.4-10.5c5.9-11.7,17.9-20.1,32.1-21.1c5.6-0.4,16.2-1.1,28.8-1.9
		c1.1-2.9,2.1-5.9,3.3-9c5.3-14.8,20.2-25.3,36.3-25.4c0.1,0,0.4,0,0.4,0c19.1,0,35.1,13.5,38.3,31.3l0.2,0c5.1,0,9.3,0.1,12.7,0.4
		c0.3,0,0.6,0.1,0.9,0.1c4.9-14.7,17.2-26.2,33.2-29.7L891,14c3.2-0.7,6.4-1,9.7-1c12.4,0,24.3,5.2,32.8,14.2
		c7.6,8.1,12,18.9,12.2,30c0.3-11.8-4.1-23.4-12.2-32c-8.5-9-20.5-14.2-32.8-14.2c-3.2,0-6.5,0.4-9.7,1L769,38.6
		c-16,3.5-28.3,15-33.2,29.7c-0.3,0-0.6-0.1-0.9-0.1c-3.4-0.3-7.6-0.4-12.7-0.4l-0.2,0c-3.3-17.7-19.2-31.3-38.3-31.3
		c0,0-0.4,0-0.4,0c-16.1,0.2-31,10.6-36.3,25.4c-1.1,3.1-2.2,6.1-3.3,9c-12.6,0.7-23.2,1.4-28.8,1.9c-14.2,1-26.1,9.4-32.1,21.1
		c-6.2,2.6-12.3,6.1-18.4,10.5c-9.3,6.7-17.8,15.1-25.2,24.8c-7-10.4-19-17.3-32.6-17.3c-0.1,0-0.7,0-0.8,0c-1.5,0-3.1,0.1-4.5,0.1
		c-4.6-15.9-19.7-27.6-37.5-27.6c-0.4,0-1,0-1.5,0c-7.9,0.3-15.4,3.1-21.6,7.6c-5.2-4.1-11.3-7.1-18-8.6c-3.3-0.8-6.7-1.2-10.2-1.3
		c-0.4,0-0.7,0-1.1,0c-7.2,0-14.7,1.6-22.2,4.7c-10.6,4.4-20.8,11.5-30.7,21.3c-1.6-2.4-3.6-4.7-5.8-6.9c-8.3-8-19.7-12.5-31.9-12.7
		c-0.4,0-0.7,0-1.1,0c-4.6,0-9.4,0.6-14.1,1.8c-9.7,2.4-19.5,7.1-29,14.1c-13.8,10-25.8,23.5-34.8,39.2
		c-5.7-5.6-12.1-10.3-18.7-14.4C222.7,129.8,222.3,130.3,221.9,130.7z"/>
	<path class="st2" d="M15.7,245.4c0-0.2,0-0.4,0-0.6c0.1-0.8,0.1-1.6,0.2-2.4c0,0,0.1-0.8,0.1-0.9c0.1-0.7,0.2-1.4,0.3-2.1
		c0-0.3,0.1-0.7,0.1-1c0.1-0.7,0.2-1.3,0.3-2c0.1-0.3,0.1-0.7,0.2-1.1c0.1-0.6,0.2-1.3,0.4-1.9c0,0,0.2-0.7,0.2-1
		c0.2-0.7,0.3-1.4,0.5-2c0.1-0.3,0.1-0.6,0.2-0.9c0.3-1,0.5-2,0.8-2.9c7.6-25.4,26.9-48.9,53.2-64.4c4.7-2.8,10.3-5.7,16.7-8.4
		c-0.4-0.5-0.9-1-1.3-1.4c-5.9,2.6-11.1,5.3-15.4,7.9c-26.2,15.5-45.6,39-53.2,64.4c-0.3,1-0.6,1.9-0.8,2.9
		c-0.1,0.3-0.2,0.6-0.2,0.9c-0.2,0.7-0.3,1.4-0.5,2c-0.1,0.3-0.2,1-0.2,1c-0.1,0.6-0.3,1.3-0.4,1.9c-0.1,0.4-0.1,0.7-0.2,1.1
		c-0.1,0.7-0.2,1.3-0.3,2c0,0.3-0.1,0.7-0.1,1c-0.1,0.7-0.2,1.4-0.3,2.1c0,0-0.1,0.9-0.1,0.9c-0.1,0.8-0.1,1.6-0.2,2.4
		c0,0.2,0,0.4,0,0.6c-0.1,1.9-0.1,3.8-0.1,5.6C15.6,247.8,15.7,246.6,15.7,245.4z"/>
	<path class="st2" d="M931.7,323.5c-2.7-6.1-6.1-11.7-10-16.6l-0.2,0.9c0,0.2-0.1,0.4-0.2,0.6c4.1,5,7.6,10.7,10.4,17.1
		c3.5,8.1,5.5,17.2,5.9,27.3c0,1,0.1,2,0.1,3.1c0-1.7,0-3.4-0.1-5.1C937.2,340.8,935.2,331.6,931.7,323.5z"/>
	<path class="st2" d="M72.8,111.2c0.8-10.1,5-25.1,20.6-39.5c14.5-13.3,36-23.7,60.5-29.3c9.9-2.2,19.4-3.4,28.1-3.4l0.3,0
		c1.5,0,2.9,0,4.3,0.1c17.1,0.8,30.8,6.4,40.6,16.5c1,1.1,2,2.2,3,3.4c0.3,0.4,0.6,0.8,0.9,1.2c0.6,0.8,1.2,1.7,1.8,2.6
		c0.3,0.4,0.5,0.8,0.8,1.3c0.5,0.9,1,1.8,1.5,2.8c0.2,0.4,0.4,0.9,0.6,1.3c0.6,1.3,1.2,2.8,1.7,4.1c0,0.1,0.1,0.2,0.1,0.3
		c0.4,1.3,0.8,2.6,1.2,4c0,0,0,0.1,0,0.1c0.1,0.4,0.2,0.7,0.2,1.1c0.2,1.1,0.4,2.1,0.6,3.2c0.1,0.4,0.1,0.8,0.2,1.1
		c0.1,1.1,0.2,2.2,0.3,3.3c0,0.3,0,0.6,0,0.9c0,0.4,0,0.8,0,1.2c0-1.1,0-2.1,0-3.2c0-0.3,0-0.6,0-0.9c-0.1-1.1-0.2-2.2-0.3-3.3
		c0-0.4-0.1-0.8-0.2-1.1c-0.2-1.1-0.4-2.2-0.6-3.2c-0.1-0.4-0.2-0.7-0.2-1.1c0,0,0-0.1,0-0.1c-0.3-1.4-0.7-2.7-1.2-4
		c0-0.1-0.1-0.2-0.1-0.3c-0.5-1.4-1.1-2.8-1.7-4.1c-0.2-0.4-0.4-0.9-0.6-1.3c-0.5-1-1-1.9-1.5-2.8c-0.3-0.4-0.5-0.9-0.8-1.3
		c-0.6-0.9-1.2-1.7-1.8-2.6c-0.3-0.4-0.6-0.8-0.9-1.2c-1-1.2-2-2.3-3-3.4c-9.8-10.1-23.5-15.6-40.6-16.5c-1.4-0.1-2.7-0.1-4.3-0.1
		l-0.3,0c-8.7,0-18.2,1.1-28.1,3.4c-24.5,5.5-46,15.9-60.5,29.3c-15.6,14.4-19.8,29.4-20.6,39.5c-0.1,1.1-0.1,2.2-0.1,3.3
		c0,0.6,0,1.1,0,1.7C72.6,113.2,72.7,112.2,72.8,111.2z"/>
</g>
<g>
	
		<image style="overflow:visible;opacity:0.5;" width="889" height="397" xlink:href="37D443759BBEC881.png"  transform="matrix(1 0 0 1 36 44)">
	</image>
	<g>
		<g>
			<g>
				<linearGradient id="SVGID_1_" gradientUnits="userSpaceOnUse" x1="393.2513" y1="282.8095" x2="393.2513" y2="78.6133">
					<stop  offset="0" style="stop-color:#03A9F4"/>
					<stop  offset="1" style="stop-color:#4FC3F7"/>
				</linearGradient>
				<path class="st3" d="M229.9,178.9c8.7,23.1,1.2,48-20.9,70.2c-18.7,18.8-46.2,33.5-73.5,39.5c-11.8,2.6-22.7,3.9-32.5,3.9
					c-17.1,0-31.1-3.9-41.3-11.5c-14.4-10.8-19.6-28.7-13.9-47.9c5.4-18.3,19.9-35.5,39.7-47.2c15.9-9.4,42.7-19.7,80.5-15.7
					c4.4,0.5,7.9,4,7.9,7.9c0,4.4-4,8-8.9,8c-0.3,0-0.8,0-1.1-0.1c-40.2-4.3-89.2,12.1-100.8,51c-4,13.3-1.1,24.5,8.2,31.5
					c11.3,8.5,32,10.1,58,4.4c23.6-5.2,48.2-18.4,64.4-34.6c22.6-22.7,21.9-42.1,17.3-54.4c-3.5-9.2-19.5-19.6-45.3-29
					c-7.1-2.6-14.2-5-21.1-7.3c-3.7-1.2-7.2-2.4-10.5-3.5l-1.4-0.5c-9-3.1-16.1-5.6-21.3-10c-7.6-6.6-11.4-14.4-10.8-22.2
					c0.5-6.8,4.2-13.5,11-19.7c10.6-9.7,27.6-17.8,46.8-22.1c7.9-1.8,15.2-2.7,21.7-2.6c1,0,2,0,2.9,0.1c9.4,0.5,16.1,2.9,20.6,7.4
					c5.1,5.3,5.9,13.3,2.1,21.5c-3.5,7.5-10.1,15.7-21,25.7c-1.5,1.4-4.2,2.4-6.4,2.4c-4.9,0-8.9-3.6-8.9-8c0-1.9,1.1-4.2,2.5-5.6
					c11.8-10.9,15.9-17.6,17.3-20.6c1.8-3.9,1.1-4.7,0.9-4.9c-0.3-0.3-2.7-1.7-8.1-2c-5.3-0.3-12.1,0.5-19.3,2.1
					c-15.1,3.4-30.5,10.5-38.4,17.7c-3.7,3.4-5.8,6.7-6,9.6c-0.2,2.1,0.3,5.1,5.4,9.5c1,0.8,7.5,3.9,16.7,7.1
					c3.1,1.1,6.5,2.2,10,3.4c6.7,2.2,14.4,4.8,21.9,7.6l0,0C197.5,148.7,222.6,159.3,229.9,178.9z M740.9,106.1c0,4.4-4,8-8.9,8
					c-0.2,0-0.5,0-0.7,0c-6.7-0.5-27.2,0-52.5,1.2c-6.9,20.4-12.3,38.3-16.2,53.2c-4.2,16.2-6.7,29.2-7.3,38.5
					c-0.3,4.6-0.1,8.6,0.5,11.2c0.2,1,0.5,1.6,0.7,1.9c0.6,0.1,1.7-0.1,4.5-1.6c4-2.1,9.3-6.4,14.8-12.1
					c13.2-13.5,26.8-33.2,35.9-47.3c1.4-2.3,4.8-4.1,7.8-4.1c4.9,0,8.9,3.6,8.9,8c0,1.3-0.5,3.1-1.3,4.2
					c-13.8,21.4-26.5,38.1-37.8,49.7c-7.1,7.3-13.3,12.2-19.2,15.4c-4.6,2.4-9.3,3.7-13.7,3.7c-3.2,0-6.3-0.7-9-2
					c-4.6-2.3-7.5-6.3-9-12.3c-1-4.2-1.3-9.1-0.9-15.5c0.3-5.1,1.1-10.9,2.3-17.5c-19.5,17.9-41,32-58.7,38.3
					c-7.6,2.7-13.8,3.7-19.5,3.3c-7-0.5-13.5-4-16.9-9.1c-2.9-4.4-4.3-9.7-4.1-16.2c-6.6,7-13,12.7-19,17.1
					c-7.4,5.3-14,8.6-20.4,9.9c-7.1,1.5-14.2,0.1-19.1-3.5c-8.7-6.6-11.1-17.9-7.3-34.5c2.4-10.6,7.4-22.2,14.7-33.9
					c-6.9,0.8-14,1.5-20.8,0.3c0.4,0.9,0.6,1.8,0.6,2.8c0,1.6-0.8,3.7-1.9,5c-16.9,19.1-49.8,45.1-77.5,55.6
					c-7.7,2.9-14,4.3-19.9,4.4c-7.5,0.1-14.2-2.4-18.4-6.9c-4.2-4.6-6.2-10.8-6-19.2c0.1-2.6,0.4-5.4,0.9-8.4
					c-18.1,15.7-37.3,27.8-53.3,33.5c-6.5,2.3-12,3.4-17.1,3.4c-0.8,0-1.7,0-2.5-0.1c-7-0.5-13.5-4-16.9-9.1
					c-6.6-9.9-5.4-23.8,4.1-48.1c7.1-18,18.9-33.7,33.3-44.1c6.4-4.7,12.7-7.8,18.7-9.3c2.5-0.6,5-0.9,7.4-0.9
					c4.8,0.1,8.9,1.6,11.7,4.4c3.2,3.1,3.6,6.3,3.7,9c0.1,2.6-0.3,5.4-1.2,8.7c-1.8,6.5-5.3,13.5-10.1,20.2
					c-6.9,9.5-22.8,26.2-51.5,33c-2.8,11.5-1.6,17.4-0.6,19c0.6,1,0.8,1.2,3,1.4c2.7,0.2,6.9-0.6,11.4-2.2
					c20.9-7.4,53.2-32.2,72.2-55.2c0.4-0.5,0.8-0.9,1.4-1.3c3.9-6.9,8.4-13.4,13.4-19.3c9-10.6,18.1-17.8,27.1-21.5
					c4.1-1.7,7.7-2.5,11.2-2.4c1.4,0,2.7,0.2,4,0.5c5.4,1.2,9.9,5.4,11.6,10.7c2.9,8.8,0.6,20-7.7,38.6c-1.2,2.9-4.8,5.1-8.4,5.1
					c-4.9,0-8.9-3.6-8.9-8c0-1,0.3-2.3,0.7-3.2c7.1-15.8,7.6-24.8,7.2-27.5c-0.6,0.1-1.3,0.3-2.3,0.7c-4.4,1.8-12.4,7.3-20.4,16.7
					c-8.1,9.5-14.8,21.2-18.9,32.8c-3.3,9.5-5.2,17.6-5.4,23.5c-0.1,4.7,0.9,7.5,1.8,8.5c0.6,0.6,1.1,1.2,4.3,1.2
					c3.3,0,8.1-1.2,13.2-3.1c22.6-8.6,55.3-33.7,70.5-50.8c1.1-1.2,2.8-2.2,4.6-2.7c-2.8-2.4-4.9-5.5-5.8-8.9
					c-1.7-6.4-0.7-14.1,3.1-25.9c1-3.2,4.5-5.7,8.2-5.8c0.1,0,0.3,0,0.4,0c4.9,0,8.9,3.6,8.9,8c0,0.7-0.2,1.7-0.4,2.4
					c-3,9.3-3.4,15.3-2.8,17.7c0.2,0.7,0.3,1.1,0.4,1.3c0.3,0.1,0.8,0.2,1.3,0.3l0.3,0.1c2.6,0.5,8.1-0.1,14.5-0.7
					c6.1-0.6,13.1-1.4,20.3-1.5l0.2,0c4.9,0,8.9,3.6,8.9,8c0,1.5-0.6,3.3-1.6,4.5c-11,14.4-18.7,29.4-21.7,42.3
					c-2.7,11.7,0.2,18.3,1.3,19.1c0.5,0.4,0.9,0.7,3.5,0.2c1.6-0.3,6.1-1.7,13.1-6.7c9.3-6.7,24.9-21.3,46.1-52.4
					c0.2-0.3,0.5-0.7,0.9-1c6.7-10.9,15.3-20.3,24.8-27.2c6.4-4.7,12.7-7.8,18.7-9.3c2.5-0.6,5-0.9,7.4-0.9
					c4.8,0.1,8.9,1.6,11.7,4.4c3.2,3.1,3.6,6.3,3.7,9c0.1,2.6-0.3,5.4-1.2,8.7c-1.8,6.5-5.3,13.5-10.1,20.2
					c-6.9,9.5-22.8,26.2-51.5,33c-2.8,11.5-1.6,17.4-0.6,19c0.6,1,0.8,1.2,3,1.4c2.7,0.2,6.9-0.6,11.4-2.2
					c20.9-7.4,53.2-32.2,72.2-55.2c0.3-0.3,0.6-0.7,1-1c3.3-11.8,7.4-25.1,12.2-39.6c-18,1-34.3,2-41.1,2.6c-0.2,0-0.7,0-0.9,0
					c-4.9,0-8.9-3.6-8.9-8c0-4.2,3.7-7.7,8.3-8c8.1-0.6,27.5-1.9,48.2-3c3-8.7,6.2-17.7,9.9-27.7c1.1-3.1,4.7-5.5,8.4-5.6l0.1,0
					c4.9,0,8.9,3.6,8.9,8c0,0.8-0.2,1.9-0.5,2.6c-2.8,7.7-5.4,14.9-7.8,21.8c17.1-0.8,29.2-1.1,37.9-1.1c4.3,0,7.8,0.1,10.5,0.3
					C737.3,98.5,740.9,102,740.9,106.1z M597.1,152.2c3.7-5,6.5-10.5,7.7-15.1c0.2-0.7,0.3-1.3,0.4-1.9c-3.4,0.9-7.9,3.2-12.1,6.3
					c-5.2,3.8-17.9,14.4-26.3,33.7C582.3,169,591.8,159.5,597.1,152.2z M309.3,152.2c3.7-5,6.5-10.5,7.7-15.1
					c0.2-0.7,0.3-1.3,0.4-1.9c-3.4,0.9-7.9,3.2-12.1,6.3c-5.2,3.8-17.9,14.4-26.3,33.7C294.5,169,304,159.5,309.3,152.2z"/>
				<g class="st4">
					<path class="st2" d="M597.1,154.2c3.7-5,6.5-10.5,7.7-15.1c0.2-0.6,0.3-1.1,0.4-1.6c0-0.1,0-0.3,0-0.4c0-0.4,0.1-1.9,0-1.9
						c0,0-0.3,1.8-0.5,2.2c-1.3,4.6-4.1,10-7.7,14.9c-5.2,7.1-14.3,16.4-29.1,22.4l-1.1,0.5c-0.1,0.2-0.1,0.4-0.1,0.6
						c-0.1,0.7,0.6,1.2,1.2,0.9C582.8,170.6,591.9,161.3,597.1,154.2z"/>
					<path class="st2" d="M497,216.2c-2.5,0.5-2.9,0.2-3.5-0.2c-0.7-0.5-2.2-3.6-2.4-9.1c-0.2,6.7,1.6,10.5,2.4,11.1
						c0.5,0.4,0.9,0.7,3.5,0.2c1.6-0.3,6.1-1.7,13.1-6.7c9.3-6.7,24.9-21.3,46.1-52.4c0.2-0.3,0.5-0.7,0.9-1
						c6.7-10.9,15.3-20.3,24.8-27.2c6.4-4.7,12.7-7.8,18.7-9.3c2.5-0.6,5-0.9,7.4-0.9c4.8,0.1,8.9,1.6,11.7,4.4c3.1,3,3.5,6,3.7,8.7
						c0-0.6,0-1.2,0-1.7c-0.1-2.8-0.5-6-3.7-9c-1-0.9-2.1-1.7-3.3-2.3c-1.5-0.2-2.9-0.7-4-1.5c-1.4-0.3-2.9-0.5-4.4-0.5
						c-2.4,0-4.8,0.3-7.4,0.9c-5.9,1.5-12.2,4.6-18.7,9.3c-9.5,6.9-18.1,16.3-24.8,27.2c-0.4,0.4-0.7,0.7-0.9,1
						c-21.3,31.1-36.8,45.7-46.1,52.4C503.1,214.6,498.6,215.9,497,216.2z"/>
					<path class="st2" d="M617,104.9c8.1-0.6,27.5-1.9,48.2-3c3-8.7,6.2-17.7,9.9-27.7c1.1-3.1,4.7-5.5,8.4-5.6l0.1,0
						c4.5,0,8.3,3,8.9,7c0-0.3,0.1-0.7,0.1-1c0-4.4-4-8-8.9-8l-0.1,0c-3.7,0-7.3,2.5-8.4,5.6c-3.6,10-6.9,19.1-9.9,27.7
						c-20.7,1.1-40.2,2.3-48.2,3c-4.7,0.3-8.3,3.8-8.3,8c0,0.3,0,0.7,0.1,1C609.3,108.1,612.7,105.1,617,104.9z"/>
					<path class="st2" d="M455.1,122.5c1-3.2,4.5-5.7,8.2-5.8c0.1,0,0.3,0,0.4,0c4.5,0,8.3,3,8.9,7c0-0.3,0.1-0.7,0.1-1
						c0-4.4-4-8-8.9-8c-0.1,0-0.3,0-0.4,0c-3.7,0.1-7.3,2.7-8.2,5.8c-2.8,8.6-4,15-3.8,20.3C451.4,135.9,452.7,130,455.1,122.5z"/>
					<path class="st2" d="M471.2,144.3c-0.5-0.1-1-0.2-1.3-0.3c-0.1-0.2-0.2-0.5-0.4-1.3c-0.1-0.4-0.2-1-0.2-1.6
						c-0.1,1.6,0,2.8,0.2,3.6c0.2,0.7,0.3,1.1,0.4,1.3c0.3,0.1,0.8,0.2,1.3,0.3l0.3,0.1c2.6,0.5,8.1-0.1,14.5-0.7
						c6.1-0.6,13.1-1.4,20.3-1.5l0.2,0c4.5,0,8.3,3,8.9,7c0.1-0.3,0.1-0.7,0.1-1c0-4.4-4-8-8.9-8l-0.2,0c-7.2,0.1-14.2,0.9-20.3,1.5
						c-6.4,0.7-12,1.2-14.5,0.7L471.2,144.3z"/>
					<path class="st2" d="M488.6,163.2c0.4-0.7,0.7-1.4,0.8-2.1c0.1-0.6,0.2-1.3,0-1.3c-0.2,0.3-1,1.7-1.3,2.2
						c-6.5,11-11.1,21.9-13.4,31.8c-1.3,5.5-1.8,10.5-1.7,14.8c0.1-3.9,0.6-8.1,1.7-12.8C477,185.5,481.8,174.5,488.6,163.2z"/>
					<path class="st2" d="M684.3,101c17.1-0.8,29.2-1.1,37.9-1.1c4.3,0,7.8,0.1,10.5,0.3c4.2,0.3,7.6,3.3,8.1,7c0-0.3,0.1-0.7,0.1-1
						c0-4.1-3.6-7.6-8.2-8c-2.6-0.2-6.2-0.3-10.5-0.3c-8.6,0-20.5,0.3-37.2,1.1C684.8,99.6,684.6,100.3,684.3,101z"/>
					<path class="st2" d="M540.4,206.9c0,0.1,0,0.3,0,0.4C540.4,207.2,540.4,207,540.4,206.9C540.4,206.9,540.4,206.9,540.4,206.9z"
						/>
					<path class="st2" d="M659,118.3c-4.5,13.7-8.4,26.3-11.5,37.6c-0.4,0.3-0.7,0.6-1,1c-18.9,23-51.3,47.8-72.2,55.2
						c-4.5,1.6-8.8,2.4-11.4,2.2c-2.2-0.2-2.4-0.4-3-1.4c-0.5-0.7-1-2.5-1.1-5.4c-0.1,4.1,0.5,6.5,1.1,7.4c0.6,1,0.8,1.2,3,1.4
						c2.7,0.2,6.9-0.6,11.4-2.2c20.9-7.4,53.2-32.2,72.2-55.2c0.3-0.3,0.6-0.7,1-1c3.3-11.8,7.4-25.1,12.2-39.6c0-0.7,0.1-2,0-2
						C659.6,116.6,659.2,117.8,659,118.3z"/>
					<path class="st2" d="M346.1,195.7c-0.3,2.1-0.5,4.2-0.5,6.1c0,0.6,0,1.2,0,1.8c0.1-2.6,0.4-5.3,0.9-8.2
						C346.3,195.5,346.2,195.6,346.1,195.7z"/>
					<path class="st2" d="M719.4,155c-3,0-6.4,1.8-7.8,4.1c-9.1,14.1-22.7,33.7-35.9,47.3c-5.5,5.7-10.8,10-14.8,12.1
						c-2.7,1.4-3.9,1.6-4.5,1.6c-0.2-0.3-0.4-0.9-0.7-1.9c-0.4-1.6-0.6-3.6-0.6-6c-0.1,3.3,0.2,6.1,0.6,8c0.2,1,0.5,1.6,0.7,1.9
						c0.6,0.1,1.7-0.1,4.5-1.6c4-2.1,9.3-6.4,14.8-12.1c13.2-13.5,26.8-33.2,35.9-47.3c1.4-2.3,4.8-4.1,7.8-4.1c4.5,0,8.3,3,8.9,7
						c0.1-0.3,0.1-0.6,0.1-0.9C728.3,158.6,724.3,155,719.4,155z"/>
					<path class="st2" d="M369.6,211.9c-3.2,0-3.7-0.5-4.3-1.2c-0.8-0.9-1.7-3.1-1.8-6.7c0,0.1,0,0.1,0,0.2
						c-0.1,4.7,0.9,7.5,1.8,8.5c0.6,0.6,1.1,1.2,4.3,1.2c3.3,0,8.1-1.2,13.2-3.1c22.6-8.6,55.3-33.7,70.5-50.8
						c1.1-1.2,2.8-2.2,4.6-2.7c-0.5-0.5-1-1-1.5-1.5c-1.2,0.5-2.3,1.3-3.1,2.1c-15.2,17.1-47.8,42.2-70.5,50.8
						C377.7,210.7,372.9,211.9,369.6,211.9z"/>
					<path class="st2" d="M47.8,235.1c5.4-18.3,19.9-35.5,39.7-47.2c15.9-9.4,42.7-19.7,80.5-15.7c4,0.4,7.3,3.4,7.8,7
						c0-0.3,0.1-0.7,0.1-1c0-4-3.5-7.5-7.9-7.9c-37.8-4.1-64.7,6.3-80.5,15.7c-19.8,11.7-34.2,28.9-39.7,47.2
						c-1.6,5.4-2.3,10.8-2.2,15.9C45.7,244.5,46.4,239.9,47.8,235.1z"/>
					<path class="st2" d="M73.3,270.7c11.3,8.5,32,10.1,58,4.4c23.6-5.2,48.2-18.4,64.4-34.6c15.7-15.7,20.1-29.9,19.8-41.2
						c-0.3,11-5.1,24.4-19.8,39.2c-16.2,16.2-40.8,29.5-64.4,34.6c-26.1,5.7-46.7,4.2-58-4.4c-6.3-4.7-9.6-11.4-9.9-19.3
						C63.2,258.2,66.5,265.6,73.3,270.7z"/>
					<path class="st2" d="M174.6,140.2L174.6,140.2c-7.6-2.8-15.2-5.3-21.9-7.6c-3.5-1.2-6.9-2.3-10-3.4c-9.1-3.2-15.7-6.3-16.7-7.1
						c-3.9-3.4-5.1-5.9-5.4-7.9c0,0.1,0,0.2,0,0.3c-0.2,2.1,0.3,5.1,5.4,9.5c1,0.8,7.5,3.9,16.7,7.1c3.1,1.1,6.5,2.2,10,3.4
						c6.7,2.2,14.4,4.8,21.9,7.6l0,0c22.9,8.5,48,19.1,55.4,38.7c2.2,6,3.4,12.1,3.5,18.3c0.1-6.8-1-13.6-3.5-20.3
						C222.6,159.3,197.5,148.7,174.6,140.2z"/>
					<path class="st2" d="M191.3,92c1.5-3.4,1.3-4.4,1-4.7c-0.2,0.7-0.5,1.6-1,2.7c-1.4,3-5.5,9.8-17.3,20.6
						c-1.5,1.3-2.5,3.7-2.5,5.6c0,0.4,0,0.7,0.1,1.1c0.3-1.7,1.2-3.5,2.4-4.6C185.8,101.8,189.9,95.1,191.3,92z"/>
					<path class="st2" d="M275.1,214.3c-2.2-0.2-2.4-0.4-3-1.4c-0.5-0.7-1-2.5-1.1-5.4c-0.1,4.1,0.5,6.5,1.1,7.4
						c0.6,1,0.8,1.2,3,1.4c2.7,0.2,6.9-0.6,11.4-2.2c20.9-7.4,53.2-32.2,72.2-55.2c0.4-0.5,0.8-0.9,1.4-1.3
						c3.9-6.9,8.4-13.4,13.4-19.3c9-10.6,18.1-17.8,27.1-21.5c4.1-1.7,7.7-2.5,11.2-2.4c1.4,0,2.7,0.2,4,0.5
						c5.4,1.2,9.9,5.4,11.6,10.7c0.7,2.1,1.1,4.4,1.2,6.9c0.1-3.3-0.3-6.2-1.2-8.9c-1.7-5.2-6.3-9.4-11.6-10.7
						c-1.3-0.3-2.7-0.5-4-0.5c-3.4-0.1-7.1,0.7-11.2,2.4c-9,3.7-18.1,11-27.1,21.5c-5,5.9-9.6,12.4-13.4,19.3
						c-0.6,0.4-1,0.8-1.4,1.3c-18.9,23-51.3,47.8-72.2,55.2C282.1,213.6,277.8,214.5,275.1,214.3z"/>
					<path class="st2" d="M402.5,159.2c0,0.4,0,0.7,0.1,1c0.1-0.8,0.3-1.6,0.6-2.2c6.5-14.6,7.5-23.4,7.3-26.7
						c-0.2,4.3-1.8,12.4-7.3,24.7C402.8,156.9,402.5,158.2,402.5,159.2z"/>
					<path class="st2" d="M309.3,154.2c3.7-5,6.5-10.5,7.7-15.1c0.2-0.7,0.3-1.3,0.4-1.9c0.1-0.8,0.1-2,0-2c0,0.3-0.5,2.2-0.5,2.2
						c-1.3,4.6-4.1,10-7.7,14.9c-5.2,7.1-14.3,16.4-29.1,22.4l-1.1,0.5c-0.1,0.1-0.1,0.3-0.2,0.5c-0.2,0.7,0.6,1.4,1.3,1.1
						C295,170.6,304.1,161.3,309.3,154.2z"/>
					<path class="st2" d="M260.9,175c7.1-18,18.9-33.7,33.3-44.1c6.4-4.7,12.7-7.8,18.7-9.3c2.5-0.6,5-0.9,7.4-0.9
						c4.8,0.1,8.9,1.6,11.7,4.4c3.1,3,3.5,6,3.7,8.7c0-0.6,0-1.2,0-1.7c-0.1-2.8-0.5-6-3.7-9c-2.9-2.8-6.9-4.3-11.7-4.4
						c-2.4,0-4.8,0.3-7.4,0.9c-5.9,1.5-12.2,4.6-18.7,9.3c-14.4,10.4-26.2,26.1-33.3,44.1c-5.7,14.7-8.4,25.6-8.2,34.1
						C252.8,198.9,255.6,188.6,260.9,175z"/>
					<path class="st2" d="M102.7,113.5c0.5-6.8,4.2-13.5,11-19.7c10.6-9.7,27.6-17.8,46.8-22.1c7.9-1.8,15.2-2.7,21.7-2.6
						c1,0,2,0,2.9,0.1c9.4,0.5,16.1,2.9,20.6,7.4c2.8,2.9,4.3,6.5,4.5,10.6c0.3-4.9-1.2-9.3-4.5-12.6c-4.4-4.5-11.1-7-20.6-7.4
						c-1,0-1.9-0.1-2.9-0.1c-6.5,0-13.8,0.9-21.7,2.6c-19.2,4.3-36.2,12.4-46.8,22.1c-6.8,6.2-10.5,12.8-11,19.7
						c-0.1,0.9-0.1,1.8,0,2.6C102.7,113.9,102.7,113.7,102.7,113.5z"/>
				</g>
			</g>
			<g>
				<linearGradient id="SVGID_2_" gradientUnits="userSpaceOnUse" x1="566.3525" y1="405.766" x2="566.3525" y2="248.4385">
					<stop  offset="0" style="stop-color:#D32F2F"/>
					<stop  offset="1" style="stop-color:#F44336"/>
				</linearGradient>
				<path class="st5" d="M225.1,266.8l47-22.2l18.3,61.6l31.3-52.4l26.1,49.3l20.7-67.4l39.8,31.1l-42.9,138.4l-43-48l-44.4,61
					L225.1,266.8z M519.9,388.6c-4.1,4.5-9.2,8.5-15.1,11.9c-5.9,3.4-12.3,6-19.1,7.7c-6.8,1.8-13.8,2.6-21,2.4
					c-7.2-0.1-14.1-1.5-20.7-4c-6.6-2.6-12.7-6.5-18.2-11.8s-10-12.1-13.5-20.5c-3.9-9.4-6.2-18.8-7-28.1
					c-0.7-9.3-0.2-18.2,1.6-26.8c1.8-8.6,4.8-16.7,9-24.4c4.1-7.7,9.2-14.6,15-20.8c5.9-6.2,12.5-11.6,19.8-16.1
					c7.3-4.5,15.1-8,23.4-10.4c7.8-2.1,15.2-2.8,22-2c6.9,0.8,13,2.6,18.6,5.4c5.5,2.8,10.2,6.1,14.1,10.1c3.9,4,6.8,7.9,8.7,12
					c3.6,7.5,6.2,16,8,25.5c1.8,9.5,2.2,19.3,1.2,29.5c-1,10.2-3.6,20.4-7.9,30.8C534.7,369.3,528.3,379.2,519.9,388.6z
					 M496.9,308.4c-1.7-4-4.2-6.9-7.3-8.7c-3.2-1.8-6.6-2.5-10.3-2.3c-3.7,0.3-7.4,1.4-11.2,3.5c-3.8,2.1-7.3,5-10.4,8.7
					c-3.1,3.7-5.7,8.2-7.7,13.5c-2,5.3-3,11.1-3,17.5c-0.1,6,0.7,10.9,2.3,14.7c1.7,3.8,3.8,6.6,6.4,8.4c2.6,1.8,5.6,2.8,8.9,3
					c3.3,0.2,6.7-0.3,9.9-1.6c3.3-1.3,6.4-3.1,9.2-5.6c2.9-2.4,5.3-5.3,7.3-8.6c2.9-4.9,5-9.4,6.3-13.7c1.3-4.2,2.1-8.1,2.4-11.6
					c0.3-3.5,0.1-6.7-0.4-9.6C498.8,313.2,498,310.7,496.9,308.4z M668,377.1l-26.8,33l-42-33.7l-0.5,32.2l-41.8-4.7l-2.8-147.1
					c21.9-2.8,43-5.2,63.3-7.3c10.8-1.3,19.8-0.4,27,2.6c7.2,3,12.7,7.4,16.4,13.1c3.7,5.7,5.9,12.4,6.4,20c0.5,7.6-0.5,15.4-3,23.4
					c-2.5,8-6.5,15.7-12,23.3c-5.5,7.5-12.2,14.1-20.3,19.6L668,377.1z M596.7,299l-1.7,30.1c4.1-1,7.7-2.4,10.8-4.3
					c3.1-1.9,5.6-3.9,7.7-6c2.1-2.1,3.7-4.2,4.8-6.1c1.1-1.9,1.8-3.5,2-4.6c0-0.1,0.1-0.8,0.2-2.1c0.1-1.3,0-2.8-0.4-4.5
					c-0.4-1.8-1.4-3.2-2.9-4.4c-1.6-1.2-3.9-1.8-7.2-1.7C606.6,295.4,602.2,296.6,596.7,299z M678.4,256.8
					c20.9-4.4,41.2-7.9,61.2-10.5c9.7-1.6,18.3-1.2,25.8,1.2c7.5,2.4,13.8,6.4,19,11.8c5.2,5.4,9.2,12,11.9,19.8
					c2.8,7.8,4.3,16.1,4.7,25c0.3,8.9-0.5,18.1-2.7,27.6c-2.1,9.5-5.6,18.6-10.4,27.5c-4.8,8.9-10.9,17.1-18.3,24.7
					c-7.4,7.6-16.2,14-26.4,19.1c-4,1.4-8.4,2.4-13.2,2.9c-4.8,0.6-11.1,0.8-19.1,0.7c-8-0.1-17.9-1-29.7-2.6L678.4,256.8z
					 M723,361.1c6.6-1.6,11.9-4.1,16-7.4c4.1-3.3,7.2-6.8,9.2-10.4s3.5-7.1,4.4-10.6c0.9-3.5,1.3-6.3,1.3-8.3c0-2.1,0-3.3,0-3.4
					c0-0.2-0.2-1.5-0.5-3.7c-0.3-2.2-1.1-4.8-2.2-7.8c-1.2-3-2.8-5.5-4.8-7.4c-2.1-1.9-4.9-2.7-8.5-2.4c-3.6,0.4-8,2.8-13.1,7.3
					L723,361.1z M875.4,309.5c3.6,1.8,7.2,3.8,11,6c3.7,2.3,7.1,5,10.2,8.3c3.1,3.3,5.6,7.2,7.6,11.8c2,4.6,3.1,10,3.4,16.3
					c0.3,8.9-1,16.8-4,23.6c-3,6.8-7.2,12.6-12.7,17.3c-5.5,4.7-12,8.4-19.6,10.9c-7.6,2.6-15.8,4-24.5,4.4c-4,0.1-8.2-0.1-12.4-0.7
					c-4.3-0.6-8.5-1.4-12.6-2.5c-4.1-1.1-8.2-2.5-12.1-4c-3.9-1.6-7.6-3.2-11.1-5l13.1-40.3c1.7,0.8,3.8,1.7,6.2,2.9
					c2.4,1.2,5,2.3,7.8,3.3c2.8,1,5.6,1.9,8.6,2.6c3,0.8,5.9,1.1,8.8,0.9c4.3-0.2,7.9-1.1,10.8-2.4c2.9-1.4,4.3-3.7,4.2-7
					c-0.1-2.1-1.1-3.8-3-4.9s-4.2-2.3-6.8-3.4c-1.7-0.5-4-1.2-6.8-2.1c-2.8-0.9-5.8-2.1-9.1-3.6c-3.2-1.5-6.5-3.3-9.8-5.5
					c-3.3-2.1-6.3-4.7-9-7.7c-2.7-3-5-6.5-6.7-10.5c-1.8-4-2.7-8.5-2.9-13.7c-0.2-8.8,1.2-16.6,4.1-23.4c3-6.8,7.1-12.7,12.3-17.5
					c5.2-4.8,11.2-8.5,18.1-11.1c6.9-2.6,14.3-4,22.1-4.4c7.3-0.4,14.5,0,21.6,1.2c7.1,1.2,13.8,3.2,20,5.9L892.2,299
					c-4.6-2.1-8.8-3.9-12.6-5.4c-3.8-1.4-8.2-2.5-13.3-3.3c-1.5-0.2-3.5-0.4-6-0.4c-2.4,0-4.8,0.3-7.2,0.8c-2.4,0.6-4.4,1.5-6.1,2.7
					c-1.7,1.3-2.7,3-2.8,5.3c0,1,0.4,1.8,1.3,2.4c0.9,0.6,1.9,1,3.1,1.3c1.2,0.3,2.4,0.6,3.7,0.8c1.3,0.2,2.3,0.3,3.1,0.5
					c3.3,0.8,6.9,1.6,10.7,2.6C869.3,307.1,872.4,308.2,875.4,309.5z"/>
				<g class="st6">
					<path class="st2" d="M808.2,283.4c3-6.8,7.1-12.7,12.3-17.5c5.2-4.8,11.2-8.5,18.1-11.1c6.9-2.6,14.3-4,22.1-4.4
						c7.3-0.4,14.5,0,21.6,1.2c7,1.2,13.5,3.1,19.6,5.8l0.4-1.8c-6.2-2.8-12.9-4.7-20-5.9c-7.1-1.2-14.3-1.6-21.6-1.2
						c-7.8,0.4-15.2,1.9-22.1,4.4c-6.9,2.6-13,6.3-18.1,11.1c-5.2,4.8-9.3,10.7-12.3,17.5c-2.8,6.5-4.2,13.8-4.2,22
						C804.2,296,805.6,289.3,808.2,283.4z"/>
					<path class="st2" d="M617.4,251.5c10.8-1.3,19.8-0.4,27,2.6c7.2,3,12.7,7.4,16.4,13.1c3.7,5.7,5.9,12.4,6.4,20
						c0.1,0.9,0.1,1.7,0.1,2.6c0-1.5,0-3.1-0.1-4.6c-0.5-7.6-2.7-14.2-6.4-20c-3.7-5.7-9.2-10.1-16.4-13.1c-7.2-3-16.2-3.9-27-2.6
						c-20.3,2.1-41.4,4.6-63.3,7.3l0,2C576.1,256.1,597.1,253.6,617.4,251.5z"/>
					<path class="st2" d="M739.6,248.3c9.7-1.6,18.3-1.2,25.8,1.2c7.5,2.4,13.8,6.4,19,11.8c5.2,5.4,9.2,12,11.9,19.8
						c2.8,7.8,4.3,16.1,4.7,25c0,0.9,0,1.7,0.1,2.6c0-1.5,0-3.1-0.1-4.6c-0.3-8.9-1.9-17.3-4.7-25c-2.8-7.8-6.7-14.4-11.9-19.8
						c-5.2-5.4-11.5-9.3-19-11.8c-7.5-2.4-16.1-2.9-25.8-1.2c-19.9,2.6-40.3,6.2-61.2,10.5l0,2C699.3,254.4,719.7,250.9,739.6,248.3
						z"/>
					<path class="st2" d="M817.9,360.6c2.4,1.2,5,2.3,7.8,3.3c2.8,1,5.6,1.9,8.6,2.6c3,0.8,5.9,1.1,8.8,0.9
						c4.3-0.2,7.9-1.1,10.8-2.4c2.9-1.4,4.3-3.7,4.2-7c0-0.2,0-0.4-0.1-0.6c-0.3,2.5-1.7,4.4-4.2,5.6c-2.9,1.4-6.5,2.2-10.8,2.4
						c-2.9,0.1-5.8-0.2-8.8-0.9c-3-0.8-5.9-1.6-8.6-2.6c-2.8-1-5.4-2.1-7.8-3.3c-2.4-1.2-4.5-2.2-6.2-2.9L798.5,396
						c0.2,0.1,0.4,0.2,0.6,0.3l12.6-38.6C813.4,358.4,815.5,359.4,817.9,360.6z"/>
					<path class="st2" d="M739,355.7c4.1-3.3,7.2-6.8,9.2-10.4s3.5-7.1,4.4-10.6c0.9-3.5,1.3-6.3,1.3-8.3c0-0.8,0-1.5,0-2
						c0,2-0.4,4.8-1.3,8.3c-0.9,3.5-2.3,7.1-4.4,10.6s-5.2,7-9.2,10.4c-4.1,3.3-9.4,5.8-15.9,7.4l-0.1,2
						C729.6,361.5,734.9,359,739,355.7z"/>
					<path class="st2" d="M886.4,315.6c-3.7-2.3-7.4-4.3-11-6c-3-1.4-6.1-2.4-9.3-3.2c-3.8-1-7.4-1.9-10.7-2.6
						c-0.8-0.1-1.8-0.3-3.1-0.5c-1.3-0.2-2.5-0.4-3.7-0.8c-1.2-0.3-2.2-0.8-3.1-1.3c-0.6-0.4-1-0.9-1.2-1.5
						c-0.1,0.4-0.1,0.7-0.1,1.1c0,1,0.4,1.8,1.3,2.4c0.9,0.6,1.9,1,3.1,1.3c1.2,0.3,2.4,0.6,3.7,0.8c1.3,0.2,2.3,0.3,3.1,0.5
						c3.3,0.8,6.9,1.6,10.7,2.6c3.2,0.8,6.3,1.8,9.3,3.2c3.6,1.8,7.2,3.8,11,6c3.7,2.3,7.1,5,10.2,8.3c3.1,3.3,5.6,7.2,7.6,11.8
						c2,4.6,3.1,10,3.4,16.3c0,0.7,0,1.3,0,1.9c0-1.3,0-2.6,0-3.9c-0.2-6.3-1.4-11.7-3.4-16.3c-2-4.6-4.6-8.5-7.6-11.8
						C893.6,320.6,890.2,317.8,886.4,315.6z"/>
					<path class="st2" d="M537.5,273.2c-2-4-4.9-8-8.7-12c-3.9-4-8.6-7.3-14.1-10.1c-5.5-2.8-11.7-4.5-18.6-5.4
						c-6.9-0.8-14.2-0.2-22,2c-8.3,2.4-16.1,5.8-23.4,10.4c-7.3,4.5-13.9,9.9-19.8,16.1c-5.9,6.2-10.9,13.2-15,20.8
						c-4.1,7.7-7.1,15.8-9,24.4c-1.4,6.6-2.1,13.3-1.9,20.3c0-6.3,0.7-12.4,1.9-18.3c1.8-8.6,4.8-16.7,9-24.4
						c4.1-7.7,9.2-14.6,15-20.8c5.9-6.2,12.5-11.6,19.8-16.1c7.3-4.5,15.1-8,23.4-10.4c7.8-2.1,15.2-2.8,22-2
						c6.9,0.8,13,2.6,18.6,5.4c5.5,2.8,10.2,6.1,14.1,10.1c3.9,4,6.8,7.9,8.7,12c3.6,7.5,6.2,16,8,25.5c1.1,5.7,1.6,11.6,1.7,17.5
						c0-6.7-0.5-13.2-1.7-19.5C543.8,289.2,541.1,280.7,537.5,273.2z"/>
					<path class="st2" d="M631.9,353.3l35.1,25.1l1-1.3l-34.7-24.8C632.9,352.7,632.4,353,631.9,353.3z"/>
					<path class="st2" d="M449.3,357.3c1.7,3.8,3.8,6.6,6.4,8.4c2.6,1.8,5.6,2.8,8.9,3c3.3,0.2,6.7-0.3,9.9-1.6
						c3.3-1.3,6.4-3.1,9.2-5.6c2.9-2.4,5.3-5.3,7.3-8.6c2.9-4.9,5-9.4,6.3-13.7c1.3-4.2,2.1-8.1,2.4-11.6c0.1-1.5,0.1-2.9,0.1-4.2
						c0,0.7-0.1,1.5-0.1,2.2c-0.3,3.5-1.1,7.4-2.4,11.6c-1.3,4.2-3.4,8.8-6.3,13.7c-2,3.3-4.4,6.1-7.3,8.6c-2.9,2.4-6,4.3-9.2,5.6
						c-3.3,1.3-6.6,1.8-9.9,1.6c-3.3-0.2-6.3-1.2-8.9-3c-2.6-1.8-4.7-4.6-6.4-8.4c-1.5-3.3-2.2-7.4-2.3-12.4
						C446.9,348.8,447.7,353.6,449.3,357.3z"/>
					<polygon class="st2" points="272.1,246.6 290.4,308.2 321.7,255.8 347.8,305.1 368.5,237.7 407.8,268.4 408.3,266.8 
						368.5,235.7 347.8,303.1 321.7,253.8 290.4,306.2 272.1,244.6 225.1,266.8 225.7,268.5 					"/>
					<path class="st2" d="M605.7,326.8c3.1-1.9,5.6-3.9,7.7-6c2.1-2.1,3.7-4.2,4.8-6.1c1.1-1.9,1.8-3.5,2-4.6c0-0.1,0.1-0.8,0.2-2.1
						c0.1-0.6,0-1.2,0-1.9c-0.1,1.2-0.2,1.8-0.2,1.9c-0.2,1.1-0.9,2.7-2,4.6c-1.1,1.9-2.7,4-4.8,6.1c-2.1,2.1-4.6,4.1-7.7,6
						c-3,1.9-6.6,3.3-10.7,4.3l-0.1,2C599.1,330.1,602.7,328.7,605.7,326.8z"/>
				</g>
			</g>
			<path class="st2" d="M889.6,231.3l-105.5-7.6c-7.6-0.5-13.6-6.7-14-14.3l-6.6-125.9c-0.4-7.4,4.6-14,11.9-15.5l122-26.6
				c9.8-2.1,18.9,5.7,18.3,15.7l-9.8,160.1C905.3,225.5,898,231.9,889.6,231.3z"/>
		</g>
	</g>
</g>
<path class="st7" d="M881,121.9c6.3-18-3.2-37.8-21.2-44.1S822.1,81,815.7,99c-5.1,14.6,0.2,30.4,12,39.2l-19.9,56.6l19.4,6.8
	l4.8-13.8l19.6,6.9l6.8-19.4l-19.6-6.9l8.2-23.4C861.8,145.5,875.9,136.5,881,121.9z M853,97.2c7.3,2.6,11.2,10.6,8.6,17.9
	c-2.6,7.3-10.6,11.2-17.9,8.6c-7.3-2.6-11.2-10.6-8.6-17.9C837.7,98.5,845.7,94.7,853,97.2z"/>
</svg>
