<?xml version="1.0" encoding="utf-8"?>
<!-- Generator: Adobe Illustrator 24.1.0, SVG Export Plug-In . SVG Version: 6.00 Build 0)  -->
<svg version="1.1" id="Layer_1" xmlns="http://www.w3.org/2000/svg" xmlns:xlink="http://www.w3.org/1999/xlink" x="0px" y="0px"
	 viewBox="0 0 512 512" style="enable-background:new 0 0 512 512;" xml:space="preserve">
<style type="text/css">
	.st0{fill:#FFFFFF;}
</style>
<path class="st0" d="M92.9,280.9c43.9,14.5,102,22.5,163.4,22.5c61.5,0,119.4-7.9,163.1-22.2c45.8-15,71-35.8,71-58.5
	c0-19.3-17.7-33.6-32.5-42.2c-19-11-46.1-20.4-78.5-27.1l-4.7-86.1c-1-18.2-16.6-32.2-34.8-31.2c-2,0.1-4.1,0.4-6,0.9l-47.1,11.5
	c-20.2,4.9-41.2,4.9-61.4,0L178.2,37c-17.7-4.3-35.6,6.5-40,24.3c-0.5,2-0.8,4-0.9,6l-4.7,85.6c-0.3,0.1-0.6,0.1-0.8,0.2
	c-32.1,6.7-59.1,16.2-78.1,27.3c-20.9,12.3-32,26.7-32,41.7C21.7,244.9,47,265.8,92.9,280.9L92.9,280.9z M149.3,68
	c0.6-11.6,10.6-20.5,22.2-19.9c1.3,0.1,2.6,0.3,3.9,0.6l47.1,11.5c22,5.4,45,5.4,67.1,0l47.1-11.5c11.3-2.8,22.7,4.2,25.5,15.5
	c0.3,1.3,0.5,2.6,0.6,3.9l6.8,124.3l-30.7,9.6c-53.8,17.6-111.8,17.6-165.5,0l-30.6-9.5L149.3,68z M132,165.3l-1.7,31
	c-0.1,2.7,1.6,5.2,4.2,6.1l35,10.9c27.8,9.1,56.9,13.8,86.2,13.8c29.4,0,58.6-4.7,86.6-13.7l35.1-10.9c2.6-0.8,4.4-3.3,4.2-6.1
	l-1.7-30.5c59.9,12.9,98.3,35,98.3,56.9c0,16.9-22.9,34.1-62.7,47.1c-42.5,13.9-99.1,21.6-159.3,21.6c-60.2,0-116.8-7.8-159.6-21.9
	c-40-13.2-63-30.5-63-47.4C33.7,200.4,72.2,178.2,132,165.3L132,165.3z"/>
<path class="st0" d="M345.9,476c42.7,0,77.3-34.5,77.3-77.1c0-42.7-34.5-77.3-77.1-77.3c-22.5,0-43.9,9.8-58.6,26.8
	c-11.5-8.5-21.3-12.4-31.4-12.4c-9.9,0-19.6,3.7-30.9,12c-28.1-32-76.8-35.3-108.9-7.2c-32,28.1-35.3,76.8-7.2,108.9
	s76.8,35.3,108.9,7.2c28.6-25,34.7-67.2,14.4-99.3c17.7-13,30.2-12.9,48,0.4c-22.6,36.2-11.5,83.8,24.6,106.3
	C317.2,471.9,331.4,476,345.9,476L345.9,476z M167,464c-36,0-65.2-29.2-65.2-65.2c0-36,29.2-65.2,65.2-65.2
	c36,0,65.2,29.2,65.2,65.2c0,0,0,0,0,0C232.2,434.7,203,463.9,167,464z M345.9,333.5c36,0,65.2,29.2,65.2,65.2
	c0,36-29.2,65.2-65.2,65.2c-36,0-65.2-29.2-65.2-65.2c0,0,0,0,0,0C280.7,362.7,309.9,333.5,345.9,333.5z"/>
</svg>
