<?xml version="1.0" encoding="utf-8"?>
<!-- Generator: Adobe Illustrator 24.1.0, SVG Export Plug-In . SVG Version: 6.00 Build 0)  -->
<svg version="1.1" id="Layer_1" xmlns="http://www.w3.org/2000/svg" xmlns:xlink="http://www.w3.org/1999/xlink" x="0px" y="0px"
	 viewBox="0 0 512 512" style="enable-background:new 0 0 512 512;" xml:space="preserve">
<style type="text/css">
	.st0{fill:#FFFFFF;}
</style>
<path class="st0" d="M96.7,269.5c42.8,14.1,99.4,21.9,159.6,21.9c60.2,0,116.8-7.7,159.3-21.6c39.8-13.1,62.7-30.2,62.7-47.1
	c0-21.9-38.4-44-98.3-56.9l1.7,30.5c0.1,2.7-1.6,5.2-4.2,6.1l-35.1,10.9c-28,9.1-57.2,13.7-86.6,13.7c-29.3,0-58.4-4.7-86.2-13.8
	l-35-10.9c-2.6-0.8-4.4-3.3-4.2-6.1l1.7-31c-59.8,12.9-98.3,35-98.3,56.8C33.7,239.1,56.6,256.3,96.7,269.5z"/>
<path class="st0" d="M338.7,201.9l30.7-9.6L362.7,68c-0.6-11.6-10.6-20.5-22.2-19.9c-1.3,0.1-2.6,0.3-3.9,0.6l-47.1,11.5
	c-22,5.4-45,5.4-67.1,0l-47.1-11.5c-11.3-2.8-22.7,4.2-25.5,15.5c-0.3,1.3-0.5,2.6-0.6,3.9l-6.8,124.3l30.6,9.5
	C227,219.4,285,219.4,338.7,201.9z"/>
<path class="st0" d="M292.2,352c-13.6-11.1-24.7-16-36.1-16s-22.5,4.9-36.1,16l7.6,9.3c21.9-17.9,35.2-17.9,57,0L292.2,352z"/>
<circle class="st0" cx="167" cy="398.7" r="65.2"/>
<circle class="st0" cx="346" cy="398.8" r="65.2"/>
</svg>
