<?xml version="1.0" encoding="utf-8"?>
<!-- Generator: Adobe Illustrator 24.1.0, SVG Export Plug-In . SVG Version: 6.00 Build 0)  -->
<svg version="1.1" xmlns="http://www.w3.org/2000/svg" xmlns:xlink="http://www.w3.org/1999/xlink" x="0px" y="0px"
	 viewBox="0 0 162.43 203.36" style="enable-background:new 0 0 162.43 203.36;" xml:space="preserve">
<style type="text/css">
	.st0{fill:#F2BA49;}
	.st1{fill:#FFD34D;}
</style>
<g id="Background">
</g>
<g id="Layer_3">
</g>
<g id="Objects">
	<g>
		<g>
			<path class="st0" d="M57.22,117.76C8.48,94.9-3.8,70.76,0.95,55.78C4.72,43.9,18.46,38.22,35.95,41.34l-2.28,12.8
				c-10.52-1.87-18.69,0.37-20.34,5.57c-2.57,8.09,8.47,27.09,49.4,46.28L57.22,117.76z"/>
		</g>
		<g>
			<path class="st0" d="M103.15,117.76l-5.52-11.77c40.93-19.2,51.97-38.2,49.4-46.28c-1.65-5.2-9.83-7.44-20.34-5.57l-2.28-12.8
				c17.5-3.11,31.24,2.56,35.01,14.44C164.18,70.76,151.89,94.9,103.15,117.76z"/>
		</g>
		<rect x="74.19" y="101.22" class="st0" width="11.98" height="67.19"/>
		<path class="st1" d="M17.87,31.35l29.57,80.18c4.66,12.65,16.02,21.87,29.44,23.13c15.82,1.49,30.41-7.86,35.81-22.51l29.8-80.81
			c0.89-2.42-0.9-4.98-3.47-4.98H21.34C18.77,26.37,16.98,28.93,17.87,31.35z"/>
		<path class="st1" d="M87.24,168.41H73.13c-12.75,0-23.09,10.34-23.09,23.09h60.3C110.33,178.75,100,168.41,87.24,168.41z"/>
		
			<rect x="74.19" y="163.77" transform="matrix(-1.836970e-16 1 -1 -1.836970e-16 277.5506 117.1793)" class="st0" width="11.98" height="67.19"/>
		<polygon class="st0" points="80.19,40.32 87.39,62.51 110.72,62.51 91.85,76.22 99.06,98.41 80.19,84.7 61.31,98.41 68.52,76.22 
			49.65,62.51 72.98,62.51 		"/>
		<polygon class="st0" points="38.34,131.63 38.34,125.09 34.72,125.09 34.72,131.63 28.18,131.63 28.18,135.25 34.72,135.25 
			34.72,141.79 38.34,141.79 38.34,135.25 44.88,135.25 44.88,131.63 		"/>
		<path class="st1" d="M24.45,115.84c0,2.37-1.92,4.29-4.29,4.29s-4.29-1.92-4.29-4.29c0-2.37,1.92-4.29,4.29-4.29
			S24.45,113.47,24.45,115.84z"/>
		<polygon class="st0" points="62.46,13.32 62.46,8.13 59.58,8.13 59.58,13.32 54.39,13.32 54.39,16.2 59.58,16.2 59.58,21.39 
			62.46,21.39 62.46,16.2 67.65,16.2 67.65,13.32 		"/>
		<path class="st1" d="M123.47,131.38c0,1.9-1.54,3.44-3.44,3.44c-1.9,0-3.44-1.54-3.44-3.44c0-1.9,1.54-3.44,3.44-3.44
			C121.93,127.94,123.47,129.48,123.47,131.38z"/>
		<path class="st1" d="M162.43,27.15c0,2.12-1.72,3.84-3.84,3.84c-2.12,0-3.84-1.72-3.84-3.84s1.72-3.84,3.84-3.84
			C160.71,23.31,162.43,25.03,162.43,27.15z"/>
		<path class="st1" d="M113.95,5.43c0,3-2.43,5.43-5.43,5.43c-3,0-5.43-2.43-5.43-5.43c0-3,2.43-5.43,5.43-5.43
			C111.52,0,113.95,2.43,113.95,5.43z"/>
		<path class="st0" d="M125.61,11.45c0,1.83-1.48,3.31-3.31,3.31c-1.83,0-3.31-1.48-3.31-3.31s1.48-3.31,3.31-3.31
			C124.13,8.13,125.61,9.62,125.61,11.45z"/>
	</g>
</g>
</svg>
